<?xml version="1.0" encoding="utf-8"?>
<!-- Generator: Adobe Illustrator 27.7.0, SVG Export Plug-In . SVG Version: 6.00 Build 0)  -->
<svg version="1.1" id="Camada_1" xmlns="http://www.w3.org/2000/svg" xmlns:xlink="http://www.w3.org/1999/xlink" x="0px" y="0px"
	 viewBox="0 0 1600 551" style="enable-background:new 0 0 1600 551;" xml:space="preserve">
<style type="text/css">
	.st0{fill:#5FBA46;}
	.st1{fill:#D19F2A;}
	.st2{fill:#C22033;}
	.st3{fill:#2D9A47;}
	.st4{fill:#48773C;}
	.st5{fill:#FDB714;}
	.st6{fill:#EF412A;}
	.st7{fill:#F99D25;}
	.st8{fill:#007DBB;}
	.st9{fill:#8F1838;}
	.st10{fill:#00ADD8;}
	.st11{fill:#F36E24;}
	.st12{fill:#EA1D2D;}
	.st13{fill:#E01A83;}
	.st14{fill:#1A3668;}
	.st15{fill:#CD8B2A;}
	.st16{fill:#00558A;}
	.st17{fill:#231F20;}
</style>
<g id="XMLID_00000081613288346715443770000015028031960040082588_">
	<path id="XMLID_00000123418878034880834370000002387112387463654580_" class="st0" d="M833.3,309c1.1-1.8,2.4-3.5,3.8-4.9
		l-12.6-13.8c-3.2,3-5.9,6.5-8,10.4L833.3,309z"/>
	<path id="XMLID_00000164515624993838434710000012596600262298545044_" class="st1" d="M864.1,299.3c1.9,0.9,3.7,2,5.3,3.3
		l12.6-13.8c-3.3-2.9-7.1-5.2-11.2-7L864.1,299.3z"/>
	<path id="XMLID_00000119088267947664951190000003366364955616650155_" class="st2" d="M892.9,303.4l-16.7,8.3
		c0.8,1.9,1.4,3.8,1.7,5.9l18.6-1.8C895.9,311.5,894.7,307.3,892.9,303.4"/>
	<path id="XMLID_00000159452464685836198210000009396489851427739802_" class="st3" d="M875,309.4l16.7-8.3
		c-2.1-3.8-4.7-7.3-7.8-10.4l-12.6,13.8C872.8,305.9,874,307.6,875,309.4"/>
	<path id="XMLID_00000176729437993989494420000008350287894923461789_" class="st4" d="M829.9,321.2c0-0.4,0-0.8,0-1.1l-18.6-1.7
		c-0.1,0.9-0.1,1.9-0.1,2.8c0,3.6,0.4,7,1.3,10.3l17.9-5.1C830.1,324.7,829.9,323,829.9,321.2"/>
	<path id="XMLID_00000146463967407165809730000004542286837325519548_" class="st5" d="M872.7,336.5c-1.3,1.6-2.8,3-4.5,4.3
		l9.8,15.9c3.6-2.5,6.9-5.5,9.6-8.9L872.7,336.5z"/>
	<path id="XMLID_00000092454398803508465710000001615582304841114280_" class="st6" d="M878.2,321.2c0,1.8-0.2,3.5-0.6,5.1l17.9,5.2
		c0.8-3.3,1.3-6.7,1.3-10.3c0-0.9,0-1.8-0.1-2.6l-18.6,1.8C878.2,320.7,878.2,320.9,878.2,321.2"/>
	<path id="XMLID_00000115477954318126935500000004249257408004935821_" class="st7" d="M835.7,336.9l-14.9,11.3
		c2.8,3.4,6,6.4,9.7,8.8l9.8-15.9C838.6,339.9,837.1,338.5,835.7,336.9"/>
	<path id="XMLID_00000137828877857432903400000001677312601554212508_" class="st8" d="M830.2,317.4c0.3-2.1,0.9-4.1,1.8-6
		l-16.7-8.3c-1.8,3.9-3.1,8.2-3.7,12.6L830.2,317.4z"/>
	<path id="XMLID_00000062900090437380219270000005402881685142768288_" class="st9" d="M875.7,358.1l-9.8-15.9
		c-1.8,1-3.7,1.8-5.7,2.3l3.5,18.4C867.9,361.9,872,360.3,875.7,358.1"/>
	<path id="XMLID_00000176007863312908997100000005534767190461953464_" class="st10" d="M876.9,329c-0.6,1.9-1.5,3.7-2.6,5.4
		l14.9,11.2c2.4-3.5,4.3-7.3,5.6-11.5L876.9,329z"/>
	<path id="XMLID_00000022558796890823258750000007634509700487698565_" class="st11" d="M857.5,345.1c-1.1,0.2-2.3,0.3-3.5,0.3
		c-0.9,0-1.9-0.1-2.8-0.2l-3.5,18.4c2,0.3,4.1,0.5,6.3,0.5c2.4,0,4.7-0.2,6.9-0.6L857.5,345.1z"/>
	<path id="XMLID_00000133490026638340809900000002932403163248100014_" class="st12" d="M855.6,297.2c2.1,0.1,4.1,0.5,6,1.2
		l6.7-17.4c-4-1.4-8.2-2.2-12.7-2.4V297.2z"/>
	<path id="XMLID_00000062877424164843807970000005544261062536266425_" class="st13" d="M848.6,344.7c-2.1-0.5-4.1-1.2-5.9-2.2
		l-9.8,15.9c3.8,2.2,7.9,3.8,12.3,4.7L848.6,344.7z"/>
	<path id="XMLID_00000174559543806835170210000015907872787085656476_" class="st14" d="M846.8,298.2c1.9-0.6,4-1,6.1-1.1v-18.7
		c-4.5,0.1-8.8,0.9-12.8,2.3L846.8,298.2z"/>
	<path id="XMLID_00000161630461447903025500000008129313543680155573_" class="st15" d="M834.1,334.7c-1.2-1.7-2.1-3.7-2.8-5.7
		l-17.9,5.1c1.4,4.3,3.4,8.3,5.9,11.8L834.1,334.7z"/>
	<path id="XMLID_00000141428116369665268500000004218238064989446543_" class="st16" d="M839.1,302.3c1.6-1.3,3.3-2.3,5.2-3.1
		l-6.7-17.4c-4,1.7-7.7,4-11,6.7L839.1,302.3z"/>
</g>
<g>
	<path class="st17" d="M339,227.9h-28.5l-6.6,22.1H293l27.2-84.4h9.1l27.3,84.4h-10.9L339,227.9z M313.2,218.8h23l-11.5-38.4
		L313.2,218.8z"/>
	<path class="st17" d="M385.9,165.5l22,68.9l22-68.9h13.7V250H433v-32.9l1-32.9L411.9,250h-8.1l-22-65.6l1,32.7V250h-10.6v-84.4
		H385.9z"/>
	<path class="st17" d="M466.1,250v-84.4h24.1c7.7,0,13.5,1.9,17.4,5.6c3.9,3.8,5.8,9.4,5.8,16.9c0,3.9-1,7.4-3,10.4
		c-2,3-4.6,5.4-8,7c3.9,1.2,6.9,3.5,9.2,7.1c2.3,3.6,3.4,7.9,3.4,13c0,7.6-2.1,13.5-6.2,17.9c-4.2,4.3-10.1,6.5-17.8,6.5H466.1z
		 M476.7,201.6h13.6c3.7,0,6.6-1.2,8.9-3.7c2.3-2.5,3.4-5.8,3.4-9.9c0-4.6-1-8-3.1-10.1s-5.2-3.2-9.4-3.2h-13.5L476.7,201.6
		L476.7,201.6z M476.7,210.5v30.4h14.5c4,0,7.2-1.3,9.6-4c2.4-2.6,3.5-6.4,3.5-11.2c0-10.2-4.3-15.3-12.9-15.3L476.7,210.5
		L476.7,210.5z"/>
	<path class="st17" d="M546.1,250h-10.6v-84.4h10.6V250z"/>
	<path class="st17" d="M621.9,223.1c-0.5,9-3,16-7.6,20.8c-4.6,4.8-11.1,7.2-19.6,7.2c-8.5,0-15.2-3.2-20.2-9.7
		c-5-6.4-7.5-15.2-7.5-26.2V200c0-11,2.6-19.7,7.7-26c5.1-6.4,12.1-9.6,21-9.6c8.2,0,14.5,2.4,18.9,7.3c4.5,4.9,6.9,11.8,7.3,20.9
		h-10.7c-0.5-6.9-1.9-11.8-4.3-14.7c-2.4-2.9-6.1-4.4-11.1-4.4c-5.8,0-10.2,2.3-13.3,6.8c-3.1,4.5-4.6,11.1-4.6,19.8v15.5
		c0,8.5,1.4,15.1,4.3,19.7c2.9,4.6,7.1,6.8,12.6,6.8s9.5-1.4,11.9-4.1c2.4-2.7,3.9-7.7,4.5-14.8
		C611.1,223.1,621.9,223.1,621.9,223.1z"/>
	<path class="st17" d="M651.5,250h-10.6v-84.4h10.6V250z"/>
	<path class="st17" d="M729.2,215.2c0,11.5-2.5,20.4-7.4,26.6c-4.9,6.2-11.9,9.3-20.9,9.3c-8.7,0-15.6-3-20.6-9.1
		c-5-6.1-7.7-14.6-7.9-25.7v-15.9c0-11.3,2.5-20.1,7.5-26.5c5-6.4,11.9-9.6,20.9-9.6c8.9,0,15.8,3.1,20.8,9.2
		c5,6.1,7.5,14.9,7.6,26.2L729.2,215.2L729.2,215.2z M718.6,200.4c0-8.9-1.5-15.6-4.4-19.9c-2.9-4.3-7.4-6.5-13.4-6.5
		c-5.8,0-10.3,2.2-13.2,6.6c-3,4.4-4.5,10.9-4.6,19.5v15.1c0,8.6,1.5,15.2,4.5,19.7c3,4.5,7.5,6.8,13.4,6.8c6,0,10.4-2.1,13.2-6.3
		c2.9-4.2,4.3-10.6,4.5-19.2V200.4z M706.3,142.8h13l-15.5,17l-8.6,0L706.3,142.8z"/>
	<path class="st17" d="M804.9,250h-10.7l-33.8-65.1V250h-10.7v-84.4h10.7l33.9,65.4v-65.4h10.6L804.9,250L804.9,250z"/>
	<path class="st17" d="M907.6,223.1c-0.5,9-3,16-7.6,20.8c-4.6,4.8-11.1,7.2-19.6,7.2c-8.5,0-15.2-3.2-20.2-9.7
		c-5-6.4-7.5-15.2-7.5-26.2V200c0-11,2.6-19.7,7.7-26c5.1-6.4,12.1-9.6,21-9.6c8.2,0,14.5,2.4,18.9,7.3s6.9,11.8,7.3,20.9h-10.7
		c-0.5-6.9-1.9-11.8-4.3-14.7s-6.1-4.4-11.1-4.4c-5.8,0-10.2,2.3-13.3,6.8s-4.6,11.1-4.6,19.8v15.5c0,8.5,1.4,15.1,4.3,19.7
		c2.9,4.6,7.1,6.8,12.6,6.8c5.5,0,9.5-1.4,11.9-4.1c2.4-2.7,3.9-7.7,4.5-14.8C896.9,223.1,907.6,223.1,907.6,223.1z"/>
	<path class="st17" d="M936.9,240.9H970v9.1h-43.8v-84.4h10.7L936.9,240.9L936.9,240.9z"/>
	<path class="st17" d="M997.9,250h-10.6v-84.4h10.6V250z"/>
	<path class="st17" d="M1034.4,165.5l22,68.9l22-68.9h13.7V250h-10.6v-32.9l1-32.9l-22.1,65.8h-8.1l-22-65.6l1,32.7V250h-10.6v-84.4
		H1034.4z"/>
	<path class="st17" d="M1155,227.9h-28.5l-6.6,22.1H1109l27.2-84.4h9.1l27.3,84.4h-10.9L1155,227.9z M1129.2,218.8h23l-11.5-38.4
		L1129.2,218.8z M1146.2,142.9h13l-15.5,17l-8.6,0L1146.2,142.9z"/>
	<path class="st17" d="M1230.1,174.7h-22.2V250h-10.6v-75.3h-22.1v-9.1h55L1230.1,174.7L1230.1,174.7z"/>
	<path class="st17" d="M1257.8,250h-10.6v-84.4h10.6V250z"/>
	<path class="st17" d="M1333.5,223.1c-0.5,9-3,16-7.6,20.8c-4.6,4.8-11.1,7.2-19.6,7.2c-8.5,0-15.2-3.2-20.2-9.7
		c-5-6.4-7.5-15.2-7.5-26.2V200c0-11,2.6-19.7,7.7-26c5.1-6.4,12.1-9.6,21-9.6c8.2,0,14.5,2.4,18.9,7.3c4.5,4.9,6.9,11.8,7.3,20.9
		h-10.7c-0.5-6.9-1.9-11.8-4.3-14.7s-6.1-4.4-11.1-4.4c-5.8,0-10.2,2.3-13.3,6.8c-3.1,4.5-4.6,11.1-4.6,19.8v15.5
		c0,8.5,1.4,15.1,4.3,19.7c2.9,4.6,7.1,6.8,12.6,6.8s9.5-1.4,11.9-4.1c2.4-2.7,3.9-7.7,4.5-14.8
		C1322.8,223.1,1333.5,223.1,1333.5,223.1z"/>
	<path class="st17" d="M1391.5,227.9h-28.5l-6.6,22.1h-10.9l27.2-84.4h9.1L1409,250h-10.9L1391.5,227.9z M1365.7,218.8h23
		l-11.5-38.4L1365.7,218.8z"/>
	<path class="st17" d="M352.5,337.1c-0.5,9-3,16-7.6,20.8s-11.1,7.2-19.6,7.2c-8.5,0-15.2-3.2-20.2-9.7c-5-6.4-7.5-15.2-7.5-26.2
		v-15.3c0-11,2.6-19.7,7.7-26s12.1-9.6,21-9.6c8.2,0,14.5,2.4,18.9,7.3c4.5,4.9,6.9,11.8,7.3,20.9h-10.7c-0.5-6.9-1.9-11.8-4.3-14.7
		c-2.4-2.9-6.1-4.4-11.1-4.4c-5.8,0-10.2,2.3-13.3,6.8c-3.1,4.5-4.6,11.1-4.6,19.8v15.5c0,8.5,1.4,15.1,4.3,19.7s7.1,6.8,12.6,6.8
		c5.5,0,9.5-1.4,11.9-4.1c2.4-2.7,3.9-7.7,4.5-14.8H352.5z"/>
	<path class="st17" d="M421.4,279.5v60c-0.1,8-2.4,14.3-7,18.8c-4.6,4.5-10.9,6.8-19.1,6.8c-8.4,0-14.7-2.2-19.1-6.6
		c-4.4-4.4-6.6-10.7-6.7-18.9v-60h10.6V339c0,5.7,1.2,9.9,3.6,12.7c2.4,2.8,6.3,4.2,11.7,4.2c5.4,0,9.3-1.4,11.7-4.2
		c2.4-2.8,3.6-7,3.6-12.7v-59.6H421.4L421.4,279.5z"/>
	<path class="st17" d="M455.7,279.5l22,68.9l22-68.9h13.7v84.4h-10.6V331l1-32.9l-22.1,65.8h-8.1l-22-65.6l1,32.7v32.9H442v-84.4
		H455.7z"/>
	<path class="st17" d="M535.9,363.9v-84.4h24.1c7.7,0,13.5,1.9,17.4,5.6c3.9,3.8,5.8,9.4,5.8,16.9c0,3.9-1,7.4-3,10.4
		c-2,3-4.6,5.4-8,7c3.9,1.2,6.9,3.5,9.2,7.1c2.3,3.6,3.4,7.9,3.4,13c0,7.6-2.1,13.5-6.2,17.9c-4.2,4.3-10.1,6.5-17.8,6.5H535.9z
		 M546.5,315.5h13.6c3.7,0,6.6-1.2,8.9-3.7c2.3-2.5,3.4-5.8,3.4-9.9c0-4.6-1-8-3.1-10.1c-2-2.1-5.2-3.2-9.4-3.2h-13.5L546.5,315.5
		L546.5,315.5z M546.5,324.4v30.4H561c4,0,7.2-1.3,9.6-4c2.4-2.6,3.5-6.4,3.5-11.2c0-10.2-4.3-15.3-12.9-15.3H546.5L546.5,324.4z"/>
	<path class="st17" d="M630.3,329.8h-14.8v34.2h-10.7v-84.4h23.7c8.3,0,14.5,2.2,18.8,6.5c4.3,4.3,6.4,10.6,6.4,18.9
		c0,5.2-1.2,9.8-3.5,13.7c-2.3,3.9-5.6,6.8-9.8,8.8l16.4,35.9v0.7h-11.4L630.3,329.8z M615.5,320.6h12.9c4.4,0,8-1.4,10.6-4.3
		c2.6-2.9,4-6.7,4-11.5c0-10.8-4.9-16.3-14.7-16.3h-12.8L615.5,320.6L615.5,320.6z"/>
	<path class="st17" d="M712.5,324.9h-29.9v29.9h34.8v9.1H672v-84.4h44.8v9.1h-34.2v27.2h29.9L712.5,324.9L712.5,324.9z"/>
	<path class="st17" d="M807.3,363.9H760v-7.7l24.1-31.9c3.6-4.9,6.2-8.9,7.6-12.1c1.4-3.2,2.1-6.5,2.1-10c0-4.5-1-8.1-3.1-10.9
		c-2.1-2.8-4.8-4.2-8.2-4.2c-4.3,0-7.6,1.5-9.9,4.4c-2.3,3-3.5,7.2-3.5,12.8h-10.3c0-7.8,2.1-14.1,6.4-18.8s10-7.2,17.3-7.2
		c6.7,0,12,2.1,15.9,6.2c3.9,4.1,5.8,9.6,5.8,16.4c0,8.4-4.3,18.2-13,29.6l-18.8,24.6h35L807.3,363.9L807.3,363.9z"/>
	<path class="st17" d="M954.1,363.9h-47.2v-7.7l24.1-31.9c3.6-4.9,6.2-8.9,7.6-12.1c1.4-3.2,2.1-6.5,2.1-10c0-4.5-1-8.1-3.1-10.9
		c-2.1-2.8-4.8-4.2-8.2-4.2c-4.3,0-7.6,1.5-9.9,4.4c-2.3,3-3.5,7.2-3.5,12.8h-10.3c0-7.8,2.1-14.1,6.4-18.8s10-7.2,17.3-7.2
		c6.7,0,12,2.1,15.9,6.2s5.8,9.6,5.8,16.4c0,8.4-4.3,18.2-13,29.6l-18.8,24.6h35L954.1,363.9L954.1,363.9z"/>
	<path class="st17" d="M982.9,316.5h6.6c4.2,0,7.5-1.3,9.7-3.9c2.3-2.6,3.4-6.1,3.4-10.6c0-9.9-3.8-14.8-11.5-14.8
		c-3.7,0-6.6,1.3-8.6,4c-2.1,2.7-3.1,6.2-3.1,10.5h-10.2c0-6.8,2.1-12.3,6.2-16.7c4.1-4.4,9.4-6.6,15.8-6.6c6.6,0,11.9,2.1,15.8,6.2
		c3.9,4.2,5.9,10,5.9,17.7c0,3.9-1,7.6-3,10.9c-2,3.4-4.7,5.9-7.9,7.5c8,2.9,11.9,9.5,11.9,19.8c0,7.5-2.1,13.5-6.3,18
		c-4.2,4.5-9.7,6.7-16.4,6.7c-6.7,0-12.1-2.1-16.2-6.4c-4.1-4.2-6.2-9.9-6.2-17.1h10.3c0,4.5,1.1,8,3.2,10.7c2.2,2.6,5.1,4,8.9,4
		c3.8,0,6.9-1.3,9.1-3.9c2.3-2.6,3.4-6.5,3.4-11.8c0-10.2-4.9-15.4-14.6-15.4h-6.1L982.9,316.5L982.9,316.5z"/>
</g>
</svg>
